<svg width="24" height="24" viewBox="0 0 24 24" fill="none" xmlns="http://www.w3.org/2000/svg">
<path d="M7.3125 5.03125V18.9475L2.625 20.9397V7.0525L7.3125 5.03125Z" fill="#B8B8B8"/>
<path fill-rule="evenodd" clip-rule="evenodd" d="M17.625 2.6875C19.7053 2.6875 21.375 4.35719 21.375 6.4375C21.375 6.80031 21.1481 7.65625 20.73 8.60594C20.3128 9.55375 19.7231 10.6309 19.1484 11.6228C18.4808 12.7732 18.1445 13.2767 17.7849 13.8149C17.7324 13.8934 17.6795 13.9726 17.625 14.0547C17.5705 13.9726 17.5176 13.8934 17.4651 13.8149C17.1055 13.2767 16.7692 12.7732 16.1016 11.6228C15.5269 10.6309 14.9372 9.55375 14.5191 8.605C14.1019 7.65813 13.875 6.80031 13.875 6.4375C13.875 4.35719 15.5447 2.6875 17.625 2.6875ZM16.6306 5.44313C16.8944 5.17941 17.252 5.03125 17.625 5.03125C17.998 5.03125 18.3556 5.17941 18.6194 5.44313C18.8831 5.70685 19.0312 6.06454 19.0312 6.4375C19.0312 6.81046 18.8831 7.16815 18.6194 7.43187C18.3556 7.69559 17.998 7.84375 17.625 7.84375C17.252 7.84375 16.8944 7.69559 16.6306 7.43187C16.3669 7.16815 16.2188 6.81046 16.2188 6.4375C16.2188 6.06454 16.3669 5.70685 16.6306 5.44313Z" fill="#B8B8B8"/>
<path fill-rule="evenodd" clip-rule="evenodd" d="M12 6.4375C12 3.34375 14.5312 0.8125 17.625 0.8125C20.7188 0.8125 23.25 3.34375 23.25 6.4375C23.25 7.3675 22.8909 8.31625 22.4297 9.36719C21.9413 10.4609 21.3936 11.5272 20.7891 12.5612C19.5956 14.6191 18.3872 16.3394 18.3872 16.3394L17.625 17.4531L16.8638 16.3394C16.0147 15.1109 15.2132 13.8503 14.4609 12.5603C13.8564 11.5266 13.3087 10.4606 12.8203 9.36719C12.3591 8.31625 12 7.3675 12 6.4375ZM0.75 5.8225L8.22094 2.62938L10.7109 3.53781C10.4679 4.11962 10.3006 4.73024 10.2131 5.35469L9.1875 4.97312V18.9166L14.8125 21.0259V16.69C14.9916 16.9581 15.1641 17.2103 15.3103 17.4231L16.6875 19.4153V20.9388L21.375 18.9466V15.2256C22.0432 14.1773 22.6687 13.1024 23.25 12.0034V20.1766L15.7791 23.3706L8.27906 20.5581L0.75 23.8094V5.8225ZM21.375 6.4375C21.375 4.35719 19.7053 2.6875 17.625 2.6875C15.5447 2.6875 13.875 4.35719 13.875 6.4375C13.875 6.80031 14.1019 7.65813 14.5191 8.605C14.9372 9.55375 15.5269 10.6309 16.1016 11.6228C16.7692 12.7732 17.1055 13.2767 17.4651 13.8149C17.5176 13.8934 17.5705 13.9726 17.625 14.0547C17.6795 13.9726 17.7324 13.8934 17.7849 13.8149C18.1445 13.2767 18.4808 12.7732 19.1484 11.6228C19.7231 10.6309 20.3128 9.55375 20.73 8.60594C21.1481 7.65625 21.375 6.80031 21.375 6.4375ZM7.3125 18.9475V5.03125L2.625 7.0525V20.9397L7.3125 18.9475Z" fill="#B8B8B8"/>
</svg>
