<svg width="80" height="80" viewBox="0 0 80 80" fill="none" xmlns="http://www.w3.org/2000/svg">
<path fill-rule="evenodd" clip-rule="evenodd" d="M11.94 67.6274L40.1796 76.3258V33.5507L10.3757 22.3251L11.94 67.6274Z" fill="white"/>
<path fill-rule="evenodd" clip-rule="evenodd" d="M10.2491 22.6602L40.0535 33.8846L39.8215 33.5507V76.3258L40.2851 75.9845L12.0459 67.2867L12.2982 67.6156L10.7327 22.3132L10.2491 22.6602ZM11.835 67.9693L40.0746 76.6678L40.5363 76.81V76.3258V33.5507V33.3028L40.3054 33.2158L10.5015 21.9911L10 21.8015L10.0179 22.3378L11.5833 67.6405L11.5921 67.8953L11.835 67.9693V67.9693Z" fill="#898989"/>
<path fill-rule="evenodd" clip-rule="evenodd" d="M14.2042 65.2445L40.0599 75.7304V30.214L13.489 19.4499L14.2042 65.2445Z" fill="white"/>
<path fill-rule="evenodd" clip-rule="evenodd" d="M13.3549 19.782L39.9269 30.5449L39.7029 30.214V75.7304L40.1948 75.3996L14.3381 64.914L14.5613 65.2392L13.8469 19.4447L13.3549 19.782V19.782ZM14.0693 65.5773L39.9257 76.062L40.4181 76.2612V75.7304V30.214V29.9722L40.194 29.8821L13.6233 19.1189L13.1237 18.9166L13.1317 19.4562L13.8469 65.251L13.8501 65.4874L14.0693 65.5773V65.5773Z" fill="#898989"/>
<path fill-rule="evenodd" clip-rule="evenodd" d="M16.6033 63.1311L40.1199 74.9559L40.1163 27.9258L16.0956 15.8522L16.6033 63.1311Z" fill="white"/>
<path fill-rule="evenodd" clip-rule="evenodd" d="M15.9343 16.1714L39.956 28.2456L39.7592 27.9259L39.7627 74.9559L40.2807 74.6366L16.7637 62.813L16.9606 63.1288L16.4522 15.8483L15.9343 16.1714V16.1714ZM16.4422 63.4505L39.9596 75.2753L40.4783 75.5354V74.9559L40.4739 27.9259V27.7054L40.2771 27.6071L16.2554 15.5328L15.731 15.2697L15.7373 15.8559L16.2453 63.1357L16.2477 63.3528L16.4422 63.4505V63.4505Z" fill="#898989"/>
<path fill-rule="evenodd" clip-rule="evenodd" d="M68.419 67.6274L40.1796 76.3258V33.5507L69.984 22.3251L68.419 67.6274Z" fill="white"/>
<path fill-rule="evenodd" clip-rule="evenodd" d="M69.8576 21.9911L40.0535 33.2158L39.8215 33.3028V33.5507V76.3258V76.81L40.2851 76.6678L68.5249 67.9693L68.7674 67.8953L68.7764 67.6405L70.3405 22.3378L70.3594 21.8015L69.8576 21.9911V21.9911ZM68.3139 67.2867L40.0746 75.9845L40.5364 76.3258V33.5507L40.3054 33.8846L70.1108 22.6602L69.6266 22.3132L68.0616 67.6156L68.3139 67.2867V67.2867Z" fill="#898989"/>
<path fill-rule="evenodd" clip-rule="evenodd" d="M66.1552 65.2445L40.2988 75.7304V30.214L66.8704 19.4499L66.1552 65.2445Z" fill="white"/>
<path fill-rule="evenodd" clip-rule="evenodd" d="M66.7362 19.1189L40.1645 29.8821L39.9416 29.9722V30.214V75.7304V76.2612L40.4336 76.062L66.2897 65.5773L66.5084 65.4874L66.5128 65.251L67.2277 19.4562L67.2359 18.9166L66.7362 19.1189V19.1189ZM66.0202 64.914L40.1645 75.3996L40.6565 75.7304V30.214L40.4329 30.5449L67.0036 19.782L66.5128 19.4447L65.7969 65.2392L66.0202 64.914Z" fill="#898989"/>
<path fill-rule="evenodd" clip-rule="evenodd" d="M63.7567 63.251L40.2396 75.075L40.2432 28.0458L64.2642 15.9711L63.7567 63.251Z" fill="white"/>
<path fill-rule="evenodd" clip-rule="evenodd" d="M64.1044 15.6521L40.0832 27.7257L39.8862 27.8247V28.0457L39.8815 75.0749V75.6552L40.3999 75.3947L63.9171 63.5695L64.1114 63.4726L64.1133 63.255L64.6226 15.9748L64.6282 15.3885L64.1044 15.6521ZM63.5956 62.9315L40.0791 74.7559L40.5967 75.0749L40.6003 28.0457L40.4046 28.3645L64.425 16.2906L63.9077 15.9671L63.399 63.2469L63.5956 62.9315V62.9315Z" fill="#898989"/>
<path fill-rule="evenodd" clip-rule="evenodd" d="M39.8815 74.9099L63.484 63.0057L63.7202 46.0867L40.1177 57.9923L39.8815 74.9099Z" fill="#E31F25"/>
<path fill-rule="evenodd" clip-rule="evenodd" d="M40.2396 58.2014L63.7792 46.1721L64.0837 29.1758L40.3872 41.2814L40.2396 58.2014Z" fill="#0078BF"/>
<path fill-rule="evenodd" clip-rule="evenodd" d="M44.4185 51.9726C41.8758 55.2989 40.988 59.4266 40.5815 62.3145V44.9372C41.9756 44.5245 48.4176 42.3628 52.2944 37.2902C56.6479 31.5929 57.2677 22.655 57.2677 22.655C57.2677 22.655 48.8065 25.6012 44.4528 31.2984C41.8822 34.6616 40.9893 38.8349 40.5815 41.6891V32.6269C41.629 31.1604 45.2631 25.4527 45.2631 19.0923C45.2631 11.7048 40.1797 4 40.1797 4C40.1797 3.99988 35.0968 11.7048 35.0968 19.0923C35.0968 25.4533 38.723 31.1611 39.7709 32.6276V41.6845C39.3626 38.8308 38.4777 34.6605 35.9075 31.2984C31.5537 25.6012 23.0935 22.655 23.0935 22.655C23.0935 22.655 23.7137 31.5929 28.0674 37.2902C31.9431 42.3622 38.3746 44.5236 39.7709 44.9372V62.3092C39.3626 59.4213 38.4829 55.2976 35.941 51.9726C31.5485 46.2232 22.9366 43.3057 22.9366 43.3057C22.9366 43.3057 23.4896 52.3814 27.8829 58.1319C31.7989 63.255 38.3603 65.3918 39.7709 65.7958V75.3334H40.5815V65.7958C41.9916 65.3918 48.5604 63.2555 52.4775 58.1319C56.8707 52.3814 57.4236 43.3057 57.4236 43.3057C57.4236 43.3057 48.8123 46.2234 44.4185 51.9726V51.9726Z" fill="#1FA740"/>
</svg>
