<svg width="7" height="11" viewBox="0 0 7 11" fill="none" xmlns="http://www.w3.org/2000/svg">
<path fill-rule="evenodd" clip-rule="evenodd" d="M0.774869 0.337369C0.812606 0.299536 0.857436 0.26952 0.906791 0.24904C0.956147 0.22856 1.00906 0.218018 1.06249 0.218018C1.11593 0.218018 1.16884 0.22856 1.2182 0.24904C1.26755 0.26952 1.31238 0.299536 1.35012 0.337369L6.22512 5.21237C6.26295 5.25011 6.29297 5.29494 6.31345 5.34429C6.33393 5.39365 6.34447 5.44656 6.34447 5.49999C6.34447 5.55343 6.33393 5.60634 6.31345 5.6557C6.29297 5.70505 6.26295 5.74988 6.22512 5.78762L1.35012 10.6626C1.27384 10.7389 1.17037 10.7818 1.06249 10.7818C0.954613 10.7818 0.851151 10.7389 0.774869 10.6626C0.698586 10.5863 0.65573 10.4829 0.65573 10.375C0.65573 10.2671 0.698586 10.1637 0.774869 10.0874L5.36306 5.49999L0.774869 0.912619C0.737036 0.874882 0.70702 0.830052 0.68654 0.780696C0.666059 0.731341 0.655518 0.67843 0.655518 0.624994C0.655518 0.571558 0.666059 0.518647 0.68654 0.469292C0.70702 0.419936 0.737036 0.375106 0.774869 0.337369Z" fill="#B8B8B8"/>
</svg>
